<?xml version="1.0" standalone="no"?>
<!DOCTYPE svg PUBLIC "-//W3C//DTD SVG 20010904//EN"
 "http://www.w3.org/TR/2001/REC-SVG-20010904/DTD/svg10.dtd">
<svg version="1.0" xmlns="http://www.w3.org/2000/svg"
 width="900.000000pt" height="900.000000pt" viewBox="0 0 900.000000 900.000000"
 preserveAspectRatio="xMidYMid meet">

<g transform="translate(0.000000,900.000000) scale(0.100000,-0.100000)"
fill="#000000" stroke="none">
<path d="M7 8964 c-4 -4 -4 -10 -2 -15 7 -10 7 -8908 0 -8919 -2 -4 -2 -10 2
-14 3 -3 2024 -6 4490 -6 l4483 0 0 4480 0 4480 -4483 0 c-2466 0 -4487 -3
-4490 -6z m6343 -2876 c47 -9 105 -23 130 -31 25 -8 65 -20 90 -27 59 -16 67
-19 190 -79 127 -62 179 -92 245 -140 182 -132 333 -294 445 -476 46 -74 138
-257 160 -315 7 -19 17 -39 22 -45 4 -5 8 -19 8 -31 0 -23 -12 -32 -96 -73
-22 -11 -51 -29 -65 -39 -13 -10 -37 -26 -54 -34 -59 -31 -418 -239 -445 -258
-16 -11 -31 -20 -35 -20 -4 0 -34 -16 -68 -36 -60 -35 -84 -49 -164 -95 -21
-12 -51 -30 -68 -40 -16 -10 -46 -26 -65 -35 -19 -10 -53 -30 -75 -45 -32 -22
-253 -149 -435 -252 -19 -10 -39 -23 -45 -27 -5 -4 -30 -19 -55 -32 -25 -14
-62 -34 -82 -46 -53 -30 -101 -58 -145 -83 -21 -12 -42 -25 -48 -29 -5 -4 -39
-24 -75 -43 -112 -60 -190 -110 -190 -121 0 -6 10 -19 23 -29 12 -9 41 -33 65
-52 113 -90 323 -162 522 -179 84 -7 310 14 355 34 11 5 45 16 75 26 30 9 72
25 93 35 20 11 56 29 80 41 151 76 333 266 406 423 34 73 45 102 76 208 17 58
18 59 49 53 38 -6 124 -23 191 -36 28 -5 77 -14 110 -20 33 -5 94 -17 135 -26
41 -9 95 -20 120 -24 61 -11 100 -27 100 -41 0 -14 -19 -85 -30 -114 -4 -11
-18 -54 -31 -95 -25 -81 -111 -274 -133 -300 -8 -8 -26 -37 -41 -64 -47 -85
-187 -258 -268 -332 -60 -56 -220 -178 -285 -218 -288 -179 -720 -285 -1042
-255 -237 21 -431 67 -575 133 -122 57 -143 67 -184 92 -224 131 -388 285
-529 494 -80 119 -77 115 -126 215 -65 134 -71 150 -111 275 -20 63 -40 122
-43 130 -3 8 -9 -12 -13 -45 -4 -33 -19 -103 -32 -155 -111 -427 -386 -775
-770 -974 -45 -23 -91 -45 -102 -48 -11 -4 -54 -18 -95 -33 -181 -66 -460
-102 -655 -85 -216 20 -339 49 -560 134 -37 14 -165 84 -185 102 -8 7 -27 19
-41 26 -93 48 -314 271 -400 403 -90 139 -173 320 -199 435 -5 19 -15 64 -24
100 -35 151 -37 221 -34 1170 l3 935 355 0 355 0 5 -955 c5 -1018 3 -974 51
-1105 77 -209 232 -380 424 -469 91 -42 96 -44 155 -57 30 -6 70 -15 88 -20
41 -10 228 -4 297 9 161 30 315 119 442 257 66 70 84 100 163 265 8 18 34 107
49 173 8 33 11 328 11 966 0 765 2 920 14 930 9 8 112 11 357 9 l344 -3 5
-540 c4 -485 6 -535 19 -490 20 71 79 203 144 318 103 184 334 429 528 559
127 85 349 197 434 219 52 13 198 48 245 58 71 15 441 7 540 -11z"/>
<path d="M5907 5395 c-130 -27 -287 -88 -338 -131 -8 -8 -19 -14 -22 -14 -8 0
-109 -77 -148 -112 -60 -55 -161 -185 -200 -261 -89 -169 -113 -275 -105 -462
9 -213 15 -234 61 -201 11 7 37 23 58 35 20 11 54 31 75 42 20 12 57 33 82 47
25 14 56 32 70 42 14 9 32 20 40 23 8 4 33 18 55 32 22 14 51 31 65 37 14 7
56 32 95 55 38 24 75 43 81 43 7 0 14 4 16 8 2 4 32 25 68 45 36 21 72 42 80
47 8 6 60 35 115 66 55 31 115 65 133 75 42 25 83 48 162 94 120 69 135 78
162 94 92 55 193 111 200 111 21 0 4 37 -32 70 -46 42 -170 129 -212 148 -16
6 -38 16 -50 22 -112 49 -378 73 -511 45z"/>
</g>
</svg>
